<svg width="1072" height="219" viewBox="0 0 1072 219" fill="none" xmlns="http://www.w3.org/2000/svg">
<g clip-path="url(#clip0_19_52)">
<path d="M101.16 33.2665V65.9618H111.668H122.248L143.63 48.6957C155.386 39.2178 165.379 31.4297 165.819 31.4297C167.215 31.4297 165.746 33.2665 158.031 41.1281C153.99 45.316 148.038 51.6346 144.879 55.3083C141.646 58.9084 138.192 62.729 137.164 63.7576C136.135 64.7863 133.49 67.5782 131.359 70.0028C129.155 72.4274 124.967 76.9093 122.175 79.9216C119.309 83.0075 114.9 87.7097 112.476 90.4282L107.92 95.3509H54.2091H0.498047V156.701V218.05H60.0138H119.529V185.355V152.66H109.022H98.4418L77.0602 169.926C65.304 179.404 55.3113 187.192 54.8704 187.192C53.4744 187.192 54.9439 185.355 62.6589 177.493C66.7001 173.305 72.6517 166.987 75.8111 163.313C79.0441 159.713 82.4975 155.892 83.5261 154.864C84.5548 153.835 87.1999 151.043 89.3307 148.619C91.535 146.194 95.7232 141.712 98.5153 138.7C101.381 135.614 105.789 130.912 108.214 128.193L112.77 123.271H166.113H219.457V61.9208V0.571121H160.309H101.16V33.2665Z" fill="black"/>
</g>
<path d="M291.18 167H269.71L319.3 39.7H348.75L398.34 167H376.11L363.19 133.94H304.1L291.18 167ZM324.62 81.88L311.32 115.51H355.97L342.67 81.88L334.5 58.32H332.98L324.62 81.88ZM419.087 60.6H398.757L398.567 39.7H419.087V60.6ZM419.277 167H398.757V72H419.277V167ZM449.842 167H429.322V72H448.132V87.01H449.082C452.882 78.27 461.622 70.67 475.492 70.67C495.252 70.67 502.852 85.11 502.852 102.78V109.05H482.332V105.25C482.332 92.71 478.722 88.15 466.752 88.15C454.402 88.15 449.842 92.9 449.842 105.44V167ZM527.323 167H506.803V72H525.613V87.01H526.563C530.363 78.27 539.103 70.67 552.973 70.67C572.733 70.67 580.333 85.11 580.333 102.78V109.05H559.813V105.25C559.813 92.71 556.203 88.15 544.233 88.15C531.883 88.15 527.323 92.9 527.323 105.44V167ZM658.757 167H613.537V39.7H658.757C698.087 39.7 723.167 64.02 723.167 103.35C723.167 142.68 698.087 167 658.757 167ZM658.757 58.13H634.057V148.57H658.757C689.157 148.57 701.317 136.03 701.317 103.35C701.317 70.67 689.157 58.13 658.757 58.13ZM750.644 60.6H730.314L730.124 39.7H750.644V60.6ZM750.834 167H730.314V72H750.834V167ZM796.621 158.07C770.591 158.07 756.151 140.97 756.151 114.37C756.151 87.77 770.781 70.67 797.381 70.67C812.581 70.67 824.361 77.13 828.921 88.15H829.681V72.57H848.491V160.16C848.491 188.09 832.151 201.2 804.601 201.2C777.811 201.2 761.091 188.47 761.091 165.67H781.421C781.421 178.59 786.171 182.96 805.171 182.96C823.601 182.96 828.161 177.64 828.161 160.16V141.35H827.401C823.031 150.47 812.011 158.07 796.621 158.07ZM776.671 114.37C776.671 133.75 784.651 140.59 802.511 140.59C817.901 140.59 828.161 133.18 828.161 117.22V111.33C828.161 95.56 817.901 88.15 802.131 88.15C784.461 88.15 776.671 94.99 776.671 114.37ZM879.074 60.6H858.744L858.554 39.7H879.074V60.6ZM879.264 167H858.744V72H879.264V167ZM928.086 167C906.996 167 895.976 159.21 895.976 137.93V89.67H880.206V72.57H896.356L900.726 49.2H916.496V72.57H944.996V89.67H916.496V136.98C916.496 146.86 920.676 148.57 933.406 148.57H944.996V165.29C941.006 166.24 934.546 167 928.086 167ZM975.559 168.9C958.649 168.9 945.539 160.16 945.539 143.63C945.539 128.05 956.939 119.88 977.079 117.03L1010.14 112.09V106.96C1010.14 92.9 1003.68 88.72 988.859 88.72C973.849 88.72 967.959 93.47 967.959 106.01V108.86H948.199V106.96C948.199 85.87 964.729 70.67 989.999 70.67C1016.41 70.67 1029.71 86.63 1029.71 109.62V167H1010.71V152.18H1009.76C1004.25 161.11 993.419 168.9 975.559 168.9ZM965.489 142.11C965.489 149.52 970.239 152.56 982.209 152.56C995.509 152.56 1010.14 147.24 1010.14 128.24V126.53L980.119 131.09C969.289 132.61 965.489 135.08 965.489 142.11ZM1061.08 167H1040.56V39.7H1061.08V167Z" fill="black"/>
<path d="M291.18 167H269.71L319.3 39.7H348.75L398.34 167H376.11L363.19 133.94H304.1L291.18 167ZM324.62 81.88L311.32 115.51H355.97L342.67 81.88L334.5 58.32H332.98L324.62 81.88ZM419.087 60.6H398.757L398.567 39.7H419.087V60.6ZM419.277 167H398.757V72H419.277V167ZM449.842 167H429.322V72H448.132V87.01H449.082C452.882 78.27 461.622 70.67 475.492 70.67C495.252 70.67 502.852 85.11 502.852 102.78V109.05H482.332V105.25C482.332 92.71 478.722 88.15 466.752 88.15C454.402 88.15 449.842 92.9 449.842 105.44V167ZM527.323 167H506.803V72H525.613V87.01H526.563C530.363 78.27 539.103 70.67 552.973 70.67C572.733 70.67 580.333 85.11 580.333 102.78V109.05H559.813V105.25C559.813 92.71 556.203 88.15 544.233 88.15C531.883 88.15 527.323 92.9 527.323 105.44V167ZM658.757 167H613.537V39.7H658.757C698.087 39.7 723.167 64.02 723.167 103.35C723.167 142.68 698.087 167 658.757 167ZM658.757 58.13H634.057V148.57H658.757C689.157 148.57 701.317 136.03 701.317 103.35C701.317 70.67 689.157 58.13 658.757 58.13ZM750.644 60.6H730.314L730.124 39.7H750.644V60.6ZM750.834 167H730.314V72H750.834V167ZM796.621 158.07C770.591 158.07 756.151 140.97 756.151 114.37C756.151 87.77 770.781 70.67 797.381 70.67C812.581 70.67 824.361 77.13 828.921 88.15H829.681V72.57H848.491V160.16C848.491 188.09 832.151 201.2 804.601 201.2C777.811 201.2 761.091 188.47 761.091 165.67H781.421C781.421 178.59 786.171 182.96 805.171 182.96C823.601 182.96 828.161 177.64 828.161 160.16V141.35H827.401C823.031 150.47 812.011 158.07 796.621 158.07ZM776.671 114.37C776.671 133.75 784.651 140.59 802.511 140.59C817.901 140.59 828.161 133.18 828.161 117.22V111.33C828.161 95.56 817.901 88.15 802.131 88.15C784.461 88.15 776.671 94.99 776.671 114.37ZM879.074 60.6H858.744L858.554 39.7H879.074V60.6ZM879.264 167H858.744V72H879.264V167ZM928.086 167C906.996 167 895.976 159.21 895.976 137.93V89.67H880.206V72.57H896.356L900.726 49.2H916.496V72.57H944.996V89.67H916.496V136.98C916.496 146.86 920.676 148.57 933.406 148.57H944.996V165.29C941.006 166.24 934.546 167 928.086 167ZM975.559 168.9C958.649 168.9 945.539 160.16 945.539 143.63C945.539 128.05 956.939 119.88 977.079 117.03L1010.14 112.09V106.96C1010.14 92.9 1003.68 88.72 988.859 88.72C973.849 88.72 967.959 93.47 967.959 106.01V108.86H948.199V106.96C948.199 85.87 964.729 70.67 989.999 70.67C1016.41 70.67 1029.71 86.63 1029.71 109.62V167H1010.71V152.18H1009.76C1004.25 161.11 993.419 168.9 975.559 168.9ZM965.489 142.11C965.489 149.52 970.239 152.56 982.209 152.56C995.509 152.56 1010.14 147.24 1010.14 128.24V126.53L980.119 131.09C969.289 132.61 965.489 135.08 965.489 142.11ZM1061.08 167H1040.56V39.7H1061.08V167Z" fill="black"/>
<defs>
<clipPath id="clip0_19_52">
<rect width="220" height="219" fill="white"/>
</clipPath>
</defs>
</svg>
