<svg width="864" height="178" viewBox="0 0 864 178" fill="none" xmlns="http://www.w3.org/2000/svg">
<path fill-rule="evenodd" clip-rule="evenodd" d="M325.307 72.1844V36.5999H395.212C400.223 36.5999 404.285 32.542 404.285 27.5364V9.0635C404.285 4.05787 400.223 0 395.212 0H294.073C289.062 0 285 4.05788 285 9.06351V165.936C285 170.942 289.062 175 294.073 175H316.234C321.244 175 325.307 170.942 325.307 165.936V107.319H381.51C386.521 107.319 390.583 103.261 390.583 98.2552V81.2479C390.583 76.2423 386.521 72.1844 381.51 72.1844H325.307Z" fill="#0D0121"/>
<path fill-rule="evenodd" clip-rule="evenodd" d="M481.083 143.677C487.275 154.042 495.653 162.243 506.192 168.259L506.222 168.276C516.95 174.136 529.074 177.047 542.547 177.047C555.862 177.047 567.827 174.135 578.395 168.27L578.403 168.265C589.111 162.248 597.499 154.041 603.534 143.658C609.581 133.255 612.582 121.373 612.582 108.064C612.582 94.7575 609.582 82.9526 603.53 72.7067C597.496 62.3289 589.111 54.125 578.408 48.1099C567.838 42.0776 555.869 39.0809 542.547 39.0809C529.065 39.0809 516.935 42.0768 506.203 48.1069L506.192 48.1129C495.653 54.1291 487.275 62.3296 481.083 72.6949L481.078 72.7025C475.024 82.9494 472.024 94.7557 472.024 108.064C472.024 121.373 475.025 133.255 481.072 143.658L481.083 143.677ZM569.797 89.8601C572.574 95.0998 573.987 101.152 573.987 108.064C573.987 114.805 572.577 120.867 569.787 126.287L569.777 126.305C567.15 131.554 563.461 135.697 558.698 138.771C553.955 141.67 548.588 143.134 542.547 143.134C536.335 143.134 530.888 141.666 526.153 138.771C521.383 135.693 517.606 131.541 514.814 126.277C512.035 120.874 510.706 114.83 510.863 108.106L510.864 108.064L510.863 108.023C510.706 101.122 512.04 95.0856 514.809 89.8601C517.605 84.5857 521.39 80.4265 526.171 77.3453C530.906 74.2935 536.345 72.7497 542.547 72.7497C548.577 72.7497 553.937 74.2886 558.68 77.3453L558.697 77.3567L558.715 77.3676C563.452 80.2679 567.137 84.393 569.768 89.8039L569.782 89.8322L569.797 89.8601Z" fill="#0D0121"/>
<path fill-rule="evenodd" clip-rule="evenodd" d="M632.697 72.5482L632.692 72.5583C627.489 82.7856 624.915 94.5555 624.915 107.82C624.915 121.085 627.489 132.931 632.686 143.315C637.867 153.664 644.912 161.89 653.829 167.94C662.779 174.013 672.836 177.047 683.946 177.047C690.16 177.047 696.06 176.124 701.636 174.267L701.659 174.259L701.682 174.251C707.208 172.244 712.171 169.642 716.559 166.439L716.569 166.432C718.993 164.638 721.208 162.72 723.21 160.676L723.147 165.936C723.147 170.942 727.209 175 732.22 175H752.669C757.68 175 761.742 170.942 761.742 165.936L761.805 50.8312C761.805 45.8256 757.743 41.7677 752.732 41.7677H732.772C727.761 41.7677 723.699 45.8256 723.699 50.8312V55.4521C721.921 53.5032 719.974 51.6834 717.859 49.9925C713.765 46.5877 708.93 43.9675 703.38 42.1157C697.941 40.0832 691.945 39.0809 685.413 39.0809C673.835 39.0809 663.458 42.103 654.341 48.1722C645.256 54.0569 638.043 62.2001 632.697 72.5482ZM720.223 89.3341C722.847 94.5766 724.188 100.722 724.188 107.82C724.188 115.085 722.845 121.401 720.214 126.812L720.204 126.832C717.734 132.076 714.209 136.12 709.627 139.018C705.063 141.906 699.704 143.378 693.482 143.378C687.439 143.378 682.162 141.913 677.593 139.026C673.168 136.126 669.629 132.072 666.99 126.802C664.362 121.393 663.021 115.081 663.021 107.82C663.021 100.722 664.362 94.5766 666.986 89.3341C669.628 84.0557 673.172 79.9958 677.605 77.0942L677.617 77.0861C682.185 74.0442 687.453 72.5055 693.482 72.5055C699.685 72.5055 705.032 74.0493 709.592 77.0861L709.61 77.0979L709.627 77.1093C714.209 80.0079 717.734 84.0516 720.204 89.2953L720.214 89.3148L720.223 89.3341Z" fill="#0D0121"/>
<path fill-rule="evenodd" clip-rule="evenodd" d="M420.162 9.06349V165.936C420.162 170.942 424.224 175 429.235 175H449.439C454.45 175 458.513 170.942 458.513 165.936V9.0635C458.513 4.05787 454.45 0 449.439 0H429.235C424.224 0 420.162 4.05786 420.162 9.06349Z" fill="#0D0121"/>
<path d="M838.525 165.936V76.4136H854.143C859.154 76.4136 863.216 72.3557 863.216 67.3501V50.8312C863.216 45.8256 859.154 41.7677 854.143 41.7677H838.525V18.101C838.525 13.0953 834.463 9.03746 829.452 9.03746H809.248C804.237 9.03746 800.174 13.0953 800.174 18.1009V41.7677H785.041C780.03 41.7677 775.967 45.8255 775.967 50.8312V67.3501C775.967 72.3557 780.03 76.4136 785.041 76.4136H800.174V165.936C800.174 170.942 804.237 175 809.248 175H829.452C834.463 175 838.525 170.942 838.525 165.936Z" fill="#0D0121"/>
<rect width="140.289" height="45" rx="22.5" transform="matrix(-0.731943 -0.681366 0.684371 -0.729135 138.489 119.219)" fill="#6AD2FF"/>
<path fill-rule="evenodd" clip-rule="evenodd" d="M67.5 0C55.0736 0 45 10.0736 45 22.5C45 34.9264 55.0736 45 67.5 45H217.5C229.926 45 240 34.9264 240 22.5C240 10.0736 229.926 0 217.5 0H67.5ZM22 87.5C22 75.0736 32.0736 65 44.5 65H137.5C149.926 65 160 75.0736 160 87.5C160 99.9264 149.926 110 137.5 110H44.5C32.0736 110 22 99.9264 22 87.5ZM0 152.5C0 140.074 10.0736 130 22.5 130H57.5C69.9264 130 80 140.074 80 152.5C80 164.926 69.9264 175 57.5 175H22.5C10.0736 175 0 164.926 0 152.5Z" fill="#2E5FE8"/>
</svg>
