<svg width="665" height="665" viewBox="0 0 665 665" fill="none" xmlns="http://www.w3.org/2000/svg">
<g clip-path="url(#clip0_1082_184)">
<path d="M333.045 155.681C379.866 156.015 424.656 174.854 457.645 208.088C490.635 241.321 509.148 286.254 509.148 333.086C509.148 379.918 490.635 424.851 457.645 458.085C424.656 491.318 379.866 510.156 333.045 510.492C307.932 510.488 283.112 505.102 260.255 494.697L247.189 488.793C244.754 487.692 242.052 487.317 239.409 487.711L225.241 489.825L187.184 495.492C177.619 496.916 169.399 488.69 170.83 479.126L176.491 441.299L178.605 427.05C178.998 424.404 178.619 421.699 177.514 419.263L171.565 406.141C161.084 383.214 155.655 358.301 155.647 333.09C155.702 286.056 174.407 240.963 207.659 207.704C240.91 174.445 285.994 155.736 333.018 155.681H333.045ZM333.032 93.0046C333.023 93.0076 333.013 93.0091 333.004 93.0091C292.87 92.9603 253.367 102.991 218.116 122.181C182.861 141.374 152.99 169.114 131.24 202.857C109.491 236.599 96.5616 275.264 93.6371 315.304C90.8127 353.976 97.4086 392.735 112.832 428.265C113.901 430.728 114.292 433.438 113.895 436.094L99.2074 534.363C96.3487 553.49 112.79 569.939 131.918 567.088L230.426 552.41C233.064 552.016 235.757 552.4 238.208 553.455C269.802 567.054 303.967 573.706 338.386 572.94C374.168 572.145 409.318 563.353 441.263 547.209C473.207 531.064 501.136 507.977 523.004 479.638C544.872 451.298 560.124 418.425 567.644 383.426C575.164 348.426 574.761 312.187 566.463 277.364C558.167 242.541 542.187 210.015 519.694 182.17C497.2 154.324 468.765 131.864 436.469 116.435C404.177 101.008 368.845 93.001 333.06 93C333.05 93 333.04 93.0015 333.032 93.0046Z" fill="#43BE64"/>
<path d="M334.451 409.097C297.783 409.082 261.98 398.029 231.754 377.393C229.275 375.713 227.154 373.565 225.512 371.07C223.869 368.575 222.736 365.782 222.18 362.852C221.622 359.922 221.651 356.912 222.264 353.993C222.876 351.074 224.062 348.303 225.752 345.84C227.442 343.377 229.603 341.268 232.114 339.635C234.623 338.002 237.432 336.876 240.379 336.322C243.326 335.768 246.354 335.796 249.291 336.406C252.227 337.016 255.013 338.194 257.492 339.874C280.239 355.103 307.04 363.238 334.465 363.238C361.889 363.238 388.69 355.103 411.437 339.874C416.441 336.481 422.598 335.203 428.55 336.322C434.502 337.441 439.764 340.864 443.176 345.84C446.59 350.816 447.876 356.935 446.749 362.852C445.624 368.77 442.18 374.001 437.175 377.393C406.941 398.034 371.127 409.087 334.451 409.097Z" fill="#43BE64"/>
</g>
<defs>
<clipPath id="clip0_1082_184">
<rect width="480" height="480" fill="white" transform="translate(93 93)"/>
</clipPath>
</defs>
</svg>
